<svg data-noselect="" viewBox="0 0 400 300" width="400" height="300" preserveAspectRatio="none" version="1.1" xmlns="http://www.w3.org/2000/svg" style="background: rgba(255, 255, 255, 0);"><defs></defs> <g id="shape_tO9owgdnfU" transform="translate(66.2313432835821,33.582089552238806) rotate(0,0,0) scale(1.1194029850746268,1.1194029850746268)" filter="" style="cursor: move; opacity: 1;"><g><rect fill="rgba(0,0,0,0)" width="259" height="184" x="-10" y="-10"></rect><svg version="1.1" id="图层_1" xmlns="http://www.w3.org/2000/svg" xmlns:xlink="http://www.w3.org/1999/xlink" x="0px" y="0px" style="enable-background:new 0 0 283.46 283.46;" xml:space="preserve" viewBox="22.05500030517578 62.53099822998047 239.35098266601562 164.78298950195312" width="239" height="164" preserveAspectRatio="none" data-parent="shape_tO9owgdnfU">
<path style="" d="M234.207,95.651l14.84-33.119c0,0-55.526,34.986-55.624,34.691
	c-0.068-0.204-18.46,22.374-24.962,34.041c-2.908,5.219-6.747,10.094-6.747,10.094l-6.815-20.844
	c8.353-11.99,10.516-6.29,10.516-6.29c1.572-2.26,0.295-5.405,0.295-5.405c-1.572-5.405-9.926-1.278-9.926-1.278
	c-5.012-5.503-21.326,6.879-21.326,6.879l-7.666,22.112l-2.409,5.912c-8.056-13.102-34.281-45.416-34.346-45.222
	c-0.098,0.295-55.624-34.691-55.624-34.691l14.84,33.119l27.616,19.3L22.055,88.083l27.886,50.712l46.976,20.736L33.16,136.828
	c0,0,35.256,31.548,35.65,31.548c47.545,0,65.714,42.038,72.921,47.874c7.206-5.836,23.016-47.874,78.424-47.874
	c0.393,0,30.146-36.265,30.146-36.265l-66.705,22.703l49.924-20.736l27.886-45.994l-54.813,22.151L234.207,95.651z M141.622,192.261
	l-8.295-10.677l7.063-27.102l-2.546-4.435h7.802l-2.464,4.435l6.899,27.102L141.622,192.261z" fill="#C30D23"></path>
<g>
	<g>
		<path style="" d="M106.383,106.139l35.055-21.799l25.105,15.612c0.961,0.422,1.841,0.966,2.621,1.63l7.829,4.868
			c0.222-0.292,0.446-0.586,0.662-0.868c2.224-2.906,4.169-5.375,5.594-7.164l-41.811-25.999l-41.416,25.754
			C101.35,99.816,103.595,102.61,106.383,106.139z" fill="#072B5F"></path>
		<path style="" d="M193.856,179.461v3.335l-34.015,21.152c-2.746,3.433-5.01,6.7-6.923,9.467
			c-2.639,3.817-4.546,6.575-6.728,8.342l-4.46,3.612l-4.46-3.612c-2.193-1.776-4.265-4.665-7.134-8.664
			c-1.861-2.595-4.045-5.633-6.605-8.835L89.02,182.796V178.6c-3.168-1.04-6.545-1.844-10.124-2.383v12.206l62.542,38.891
			l62.543-38.891V176.89C200.379,177.551,197.003,178.415,193.856,179.461z" fill="#072B5F"></path>
	</g>
</g>
</svg></g> <!----></g><g id="shapge_2AANrooiGS" transform="translate(119.40298507462687,223.88059701492534) rotate(0,0,0) scale(1.1194029850746268,1.1194029850746268)" filter="" style="cursor: move; opacity: 1;"><g><svg xmlns="http://www.w3.org/2000/svg" version="1.1" xmlns:xlink="http://www.w3.org/1999/xlink" overflow="hidden" style="top:0; left: 0" width="144" height="38" viewBox="0 0 144.86700000000002 38.279999999999994" preserveAspectRatio="none" data-parent="shapge_2AANrooiGS"><rect fill="rgba(0,0,0,0)" width="144" height="38"></rect> <rect opacity="0"></rect><g transform="translate(0 0)" data-width="139.86700000000002"><path fill="#C30D23" d="M5.60 0L2.90 0L2.90-21.26L5.60-21.26L5.60-10.59L5.68-10.59L14.56-21.26L17.57-21.26L10.93-13.17L18.62 0L15.60 0L9.25-11.08L5.60-6.73L5.60 0Z" transform="translate(0 25.52)"></path><path fill="#C30D23" d="M5.31 0L2.67 0L2.67-15.75L4.84-15.75L5.08-13.49L5.16-13.49L5.16-13.49Q6.29-14.62 7.57-15.38L7.57-15.38L7.57-15.38Q8.85-16.15 10.44-16.15L10.44-16.15L10.44-16.15Q12.93-16.15 14.09-14.57L14.09-14.57L14.09-14.57Q15.25-12.99 15.25-9.98L15.25-9.98L15.25 0L12.62 0L12.62-9.63L12.62-9.63Q12.62-11.86 11.90-12.85L11.90-12.85L11.90-12.85Q11.19-13.83 9.63-13.83L9.63-13.83L9.63-13.83Q8.41-13.83 7.44-13.22L7.44-13.22L7.44-13.22Q6.47-12.62 5.31-11.43L5.31-11.43L5.31 0Z" transform="translate(18.734 25.52)"></path><path fill="#C30D23" d="M5.31 0L2.67 0L2.67-15.75L5.31-15.75L5.31 0ZM4.00-19.00L4.00-19.00L4.00-19.00Q3.22-19.00 2.70-19.49L2.70-19.49L2.70-19.49Q2.18-19.98 2.18-20.71L2.18-20.71L2.18-20.71Q2.18-22.33 4.00-22.42L4.00-22.42L4.00-22.42Q4.79-22.42 5.31-21.97L5.31-21.97L5.31-21.97Q5.83-21.52 5.83-20.71L5.83-20.71L5.83-20.71Q5.83-19.98 5.31-19.49L5.31-19.49L5.31-19.49Q4.79-19.00 4.00-19.00Z" transform="translate(36.453 25.52)"></path><path fill="#C30D23" d="M10.32-22.94L10.32-22.94L9.74-20.94L9.74-20.94Q8.82-21.34 7.98-21.34L7.98-21.34L7.98-21.34Q5.71-21.34 5.74-18.24L5.74-18.24L5.74-15.75L9.08-15.75L9.08-13.60L5.74-13.60L5.74 0L3.10 0L3.10-13.60L0.96-13.60L0.96-15.60L3.10-15.75L3.10-18.27L3.10-18.27Q3.10-20.68 4.22-22.07L4.22-22.07L4.22-22.07Q5.34-23.46 7.69-23.46L7.69-23.46L7.69-23.46Q9.13-23.46 10.32-22.94Z" transform="translate(44.428000000000004 25.52)"></path><path fill="#C30D23" d="M9.02 0.38L9.02 0.38L9.02 0.38Q6.93 0.38 5.22-0.59L5.22-0.59L5.22-0.59Q3.51-1.57 2.49-3.42L2.49-3.42L2.49-3.42Q1.48-5.28 1.48-7.86L1.48-7.86L1.48-7.86Q1.48-10.41 2.49-12.27L2.49-12.27L2.49-12.27Q3.51-14.12 5.13-15.14L5.13-15.14L5.13-15.14Q6.76-16.15 8.58-16.15L8.58-16.15L8.58-16.15Q11.60-16.15 13.22-14.14L13.22-14.14L13.22-14.14Q14.85-12.12 14.85-8.76L14.85-8.76L14.85-8.76Q14.85-7.89 14.73-7.25L14.73-7.25L4.12-7.25L4.12-7.25Q4.29-4.70 5.70-3.22L5.70-3.22L5.70-3.22Q7.11-1.74 9.34-1.74L9.34-1.74L9.34-1.74Q10.50-1.74 11.46-2.07L11.46-2.07L11.46-2.07Q12.41-2.41 13.28-2.99L13.28-2.99L14.24-1.25L14.24-1.25Q13.20-0.55 11.92-0.09L11.92-0.09L11.92-0.09Q10.64 0.38 9.02 0.38ZM4.09-9.13L4.09-9.13L12.53-9.13L12.53-9.13Q12.53-13.92 8.61-14.04L8.61-14.04L8.61-14.04Q6.93-14.04 5.66-12.76L5.66-12.76L5.66-12.76Q4.38-11.48 4.09-9.13Z" transform="translate(53.85300000000001 25.52)"></path><path fill="#C30D23" d="M16.10 0L1.45 0L1.45-1.59L12.67-19.00L2.47-19.00L2.47-21.26L15.98-21.26L15.98-19.69L4.76-2.29L16.10-2.29L16.10 0Z" transform="translate(69.91900000000001 25.52)"></path><path fill="#C30D23" d="M9.16-19.08L5.60-19.08L5.60-11.19L9.16-11.19L9.16-11.19Q11.66-11.19 12.99-12.21L12.99-12.21L12.99-12.21Q14.33-13.22 14.33-15.28L14.33-15.28L14.33-15.28Q14.33-17.40 12.99-18.24L12.99-18.24L12.99-18.24Q11.66-19.08 9.16-19.08L9.16-19.08ZM12.18-9.31L17.63 0L14.59 0L9.43-9.02L5.60-9.02L5.60 0L2.90 0L2.90-21.26L9.57-21.26L9.57-21.26Q11.75-21.26 13.41-20.69L13.41-20.69L13.41-20.69Q15.08-20.13 16.04-18.82L16.04-18.82L16.04-18.82Q16.99-17.52 16.99-15.28L16.99-15.28L16.99-15.28Q16.99-12.82 15.69-11.32L15.69-11.32L15.69-11.32Q14.38-9.83 12.18-9.31L12.18-9.31Z" transform="translate(87.406 25.52)"></path><path fill="#C30D23" d="M9.02 0.38L9.02 0.38L9.02 0.38Q6.93 0.38 5.22-0.59L5.22-0.59L5.22-0.59Q3.51-1.57 2.49-3.42L2.49-3.42L2.49-3.42Q1.48-5.28 1.48-7.86L1.48-7.86L1.48-7.86Q1.48-10.41 2.49-12.27L2.49-12.27L2.49-12.27Q3.51-14.12 5.13-15.14L5.13-15.14L5.13-15.14Q6.76-16.15 8.58-16.15L8.58-16.15L8.58-16.15Q11.60-16.15 13.22-14.14L13.22-14.14L13.22-14.14Q14.85-12.12 14.85-8.76L14.85-8.76L14.85-8.76Q14.85-7.89 14.73-7.25L14.73-7.25L4.12-7.25L4.12-7.25Q4.29-4.70 5.70-3.22L5.70-3.22L5.70-3.22Q7.11-1.74 9.34-1.74L9.34-1.74L9.34-1.74Q10.50-1.74 11.46-2.07L11.46-2.07L11.46-2.07Q12.41-2.41 13.28-2.99L13.28-2.99L14.24-1.25L14.24-1.25Q13.20-0.55 11.92-0.09L11.92-0.09L11.92-0.09Q10.64 0.38 9.02 0.38ZM4.09-9.13L4.09-9.13L12.53-9.13L12.53-9.13Q12.53-13.92 8.61-14.04L8.61-14.04L8.61-14.04Q6.93-14.04 5.66-12.76L5.66-12.76L5.66-12.76Q4.38-11.48 4.09-9.13Z" transform="translate(105.82100000000001 25.52)"></path><path fill="#C30D23" d="M8.03 0.38L8.03 0.38L8.03 0.38Q5.08 0.38 3.31-1.77L3.31-1.77L3.31-1.77Q1.54-3.92 1.54-7.86L1.54-7.86L1.54-7.86Q1.54-10.41 2.49-12.27L2.49-12.27L2.49-12.27Q3.45-14.12 5.00-15.14L5.00-15.14L5.00-15.14Q6.55-16.15 8.35-16.15L8.35-16.15L8.35-16.15Q9.74-16.15 10.76-15.66L10.76-15.66L10.76-15.66Q11.77-15.17 12.79-14.30L12.79-14.30L12.64-17.02L12.64-23.08L15.28-23.08L15.28 0L13.14 0L12.88-1.86L12.82-1.86L12.82-1.86Q11.89-0.93 10.67-0.28L10.67-0.28L10.67-0.28Q9.45 0.38 8.03 0.38ZM8.61-1.83L8.61-1.83L8.61-1.83Q10.79-1.83 12.64-4.00L12.64-4.00L12.64-12.27L12.64-12.27Q10.79-13.92 8.82-13.92L8.82-13.92L8.82-13.92Q6.90-13.92 5.58-12.25L5.58-12.25L5.58-12.25Q4.26-10.59 4.26-7.89L4.26-7.89L4.26-7.89Q4.26-5.05 5.39-3.44L5.39-3.44L5.39-3.44Q6.53-1.83 8.61-1.83Z" transform="translate(121.88700000000001 25.52)"></path></g></svg></g> <!----></g>  <!----></svg>